HIERARCHY
ROOT joint_0
{
	OFFSET 0.000000 0.000000 0.000000
	CHANNELS 6 Xposition Yposition Zposition Zrotation Yrotation Xrotation 
	JOINT joint_1
	{
		OFFSET 6.579712 -2.778931 100.531982
		CHANNELS 3 Zrotation Yrotation Xrotation
		JOINT joint_2
		{
			OFFSET -3.313232 -1.302856 91.974976
			CHANNELS 3 Zrotation Yrotation Xrotation
			JOINT joint_3
			{
				OFFSET -3.421509 -1.641846 91.864014
				CHANNELS 3 Zrotation Yrotation Xrotation
				JOINT joint_4
				{
					OFFSET 7.697388 -4.642578 123.278931
					CHANNELS 3 Zrotation Yrotation Xrotation
					JOINT joint_5
					{
						OFFSET 24.842529 -5.941528 79.695068
						CHANNELS 3 Zrotation Yrotation Xrotation
						End Site
						{
							OFFSET 0.000000 0.000000 0.000000
						}
					}
				}
				JOINT joint_6
				{
					OFFSET -0.159668 -29.112976 68.364014
					CHANNELS 3 Zrotation Yrotation Xrotation
					JOINT joint_7
					{
						OFFSET -18.356079 -115.987061 -20.069092
						CHANNELS 3 Zrotation Yrotation Xrotation
						JOINT joint_8
						{
							OFFSET 31.719482 -11.733276 -267.170898
							CHANNELS 3 Zrotation Yrotation Xrotation
							JOINT joint_9
							{
								OFFSET 29.329956 -5.879517 -234.654053
								CHANNELS 3 Zrotation Yrotation Xrotation
								End Site
								{
									OFFSET 0.000000 0.000000 0.000000
								}
							}
						}
					}
				}
				JOINT joint_10
				{
					OFFSET 8.802979 23.897949 69.798950
					CHANNELS 3 Zrotation Yrotation Xrotation
					JOINT joint_11
					{
						OFFSET 21.159058 115.524292 -19.981934
						CHANNELS 3 Zrotation Yrotation Xrotation
						JOINT joint_12
						{
							OFFSET 18.809204 5.403442 -268.593018
							CHANNELS 3 Zrotation Yrotation Xrotation
							JOINT joint_13
							{
								OFFSET 20.807861 0.421265 -235.639038
								CHANNELS 3 Zrotation Yrotation Xrotation
								End Site
								{
									OFFSET 0.000000 0.000000 0.000000
								}
							}
						}
					}
				}
			}
		}
	}
	JOINT joint_14
	{
		OFFSET -9.713379 -79.513916 -99.348022
		CHANNELS 3 Zrotation Yrotation Xrotation
		JOINT joint_15
		{
			OFFSET -40.607788 -6.518372 -502.938019
			CHANNELS 3 Zrotation Yrotation Xrotation
			JOINT joint_16
			{
				OFFSET -19.807617 -7.437378 -399.590012
				CHANNELS 3 Zrotation Yrotation Xrotation
				JOINT joint_17
				{
					OFFSET 171.701660 -44.751282 -77.782000
					CHANNELS 3 Zrotation Yrotation Xrotation
					End Site
					{
						OFFSET 0.000000 0.000000 0.000000
					}
				}
			}
		}
	}
	JOINT joint_18
	{
		OFFSET 17.854858 79.618652 -98.128052
		CHANNELS 3 Zrotation Yrotation Xrotation
		JOINT joint_19
		{
			OFFSET -24.848877 16.861816 -503.722992
			CHANNELS 3 Zrotation Yrotation Xrotation
			JOINT joint_20
			{
				OFFSET -30.162476 14.470093 -398.750008
				CHANNELS 3 Zrotation Yrotation Xrotation
				JOINT joint_21
				{
					OFFSET 176.096680 -10.987549 -80.021000
					CHANNELS 3 Zrotation Yrotation Xrotation
					End Site
					{
						OFFSET 0.000000 0.000000 0.000000
					}
				}
			}
		}
	}
}
MOTION
Frames: 6
Frame Time: 0.016667
-1814.938354 887.305664 1096.359009 14.576218 1.136022 -0.911160 -0.096483 -2.397316 0.593170 -0.054865 0.370354 -0.159291 -0.061481 -0.491869 0.068476 0.334201 -0.214185 -1.152081 0.000000 0.000000 0.000000 -0.473174 1.901673 0.636065 -0.116575 1.974904 -0.204432 -0.203338 -0.451028 -1.714260 0.000000 0.000000 0.000000 0.818070 0.788095 0.858716 -0.145289 1.198890 -2.291007 0.148285 -1.876175 2.548516 0.000000 0.000000 0.000000 1.998235 -0.526387 -0.669585 1.951730 -0.752032 0.025084 1.918287 -0.667304 0.698071 0.000000 0.000000 0.000000 -1.898947 0.480005 2.613683 -1.781057 -1.248652 -0.267869 -1.709728 -0.725879 -0.819835 0.000000 0.000000 0.000000 
-1815.017090 887.306519 1096.360962 14.582754 1.123756 -0.911136 -0.094573 -2.389538 0.593407 -0.053032 0.369498 -0.158054 -0.059652 -0.489777 0.067951 0.334008 -0.215948 -1.151927 0.000000 0.000000 0.000000 -0.484597 1.897531 0.639858 -0.117154 1.970562 -0.211278 -0.203359 -0.453824 -1.715239 0.000000 0.000000 0.000000 0.812225 0.790522 0.856109 -0.145145 1.201305 -2.287937 0.148404 -1.876193 2.550959 0.000000 0.000000 0.000000 1.996313 -0.517332 -0.670056 1.949827 -0.750522 0.024682 1.916372 -0.666016 0.697534 0.000000 0.000000 0.000000 -1.901193 0.485836 2.612356 -1.783392 -1.243604 -0.268073 -1.712214 -0.724923 -0.820909 0.000000 0.000000 0.000000 
-1815.099731 887.311157 1096.364990 14.588486 1.111661 -0.911564 -0.092996 -2.382399 0.596498 -0.051677 0.367814 -0.158886 -0.058163 -0.487357 0.068581 0.334250 -0.216504 -1.152919 0.000000 0.000000 0.000000 -0.494337 1.894054 0.642294 -0.117625 1.966752 -0.216900 -0.203489 -0.456255 -1.716899 0.000000 0.000000 0.000000 0.808894 0.792904 0.853012 -0.145114 1.203421 -2.286444 0.148561 -1.876184 2.553942 0.000000 0.000000 0.000000 1.994631 -0.508897 -0.670166 1.948200 -0.748928 0.024100 1.914684 -0.663634 0.697387 0.000000 0.000000 0.000000 -1.903192 0.491561 2.610533 -1.785590 -1.238826 -0.266912 -1.714450 -0.723830 -0.821863 0.000000 0.000000 0.000000 
-1815.182983 887.319885 1096.371948 14.592389 1.100220 -0.911684 -0.092402 -2.378810 0.600582 -0.051210 0.368681 -0.160459 -0.057592 -0.486960 0.069682 0.334730 -0.213511 -1.153816 0.000000 0.000000 0.000000 -0.498944 1.891975 0.643482 -0.117912 1.964629 -0.220155 -0.203883 -0.458135 -1.720363 0.000000 0.000000 0.000000 0.811412 0.796147 0.850524 -0.145306 1.205994 -2.287855 0.148815 -1.876495 2.558626 0.000000 0.000000 0.000000 1.993613 -0.501760 -0.670367 1.947313 -0.746494 0.022365 1.913639 -0.660608 0.697702 0.000000 0.000000 0.000000 -1.904395 0.496986 2.606767 -1.787279 -1.234666 -0.263175 -1.715934 -0.721298 -0.822384 0.000000 0.000000 0.000000 
-1815.270630 887.331055 1096.380005 14.595177 1.088431 -0.912156 -0.092206 -2.373718 0.605862 -0.051264 0.366366 -0.161794 -0.057473 -0.485545 0.071117 0.335502 -0.208649 -1.155219 0.000000 0.000000 0.000000 -0.501169 1.890516 0.643217 -0.118069 1.963065 -0.222009 -0.204390 -0.459606 -1.724540 0.000000 0.000000 0.000000 0.816015 0.799657 0.848302 -0.145663 1.208864 -2.291287 0.149054 -1.878132 2.563744 0.000000 0.000000 0.000000 1.992866 -0.494740 -0.670092 1.946776 -0.744040 0.020088 1.912879 -0.656825 0.698345 0.000000 0.000000 0.000000 -1.905321 0.502750 2.602391 -1.788840 -1.230694 -0.257769 -1.717156 -0.718483 -0.822769 0.000000 0.000000 0.000000 
-1815.364990 887.340393 1096.387939 14.598589 1.077766 -0.912353 -0.091146 -2.369246 0.610290 -0.050370 0.365174 -0.162345 -0.056499 -0.484404 0.071442 0.335375 -0.206652 -1.154325 0.000000 0.000000 0.000000 -0.506707 1.889062 0.645041 -0.118299 1.961400 -0.224649 -0.204763 -0.460856 -1.727672 0.000000 0.000000 0.000000 0.819138 0.801497 0.846281 -0.145976 1.210231 -2.293994 0.149161 -1.879893 2.567177 0.000000 0.000000 0.000000 1.992117 -0.488852 -0.670240 1.946215 -0.742278 0.017768 1.912084 -0.652988 0.698986 0.000000 0.000000 0.000000 -1.906408 0.506592 2.598412 -1.790388 -1.226281 -0.253785 -1.718484 -0.715490 -0.823191 0.000000 0.000000 0.000000 
